<svg width="13" height="14" viewBox="0 0 13 14" fill="none" xmlns="http://www.w3.org/2000/svg">
<path d="M6.25125 6.80139C6.12374 6.80139 6.00146 6.85204 5.91129 6.94221C5.82113 7.03237 5.77048 7.15465 5.77048 7.28216V7.28601C5.77048 7.55139 5.98586 7.76678 6.25125 7.76678H6.2551C6.3826 7.76678 6.50489 7.71612 6.59505 7.62596C6.68521 7.5358 6.73586 7.41351 6.73586 7.28601V7.28216C6.73586 7.15465 6.68521 7.03237 6.59505 6.94221C6.50489 6.85204 6.3826 6.80139 6.2551 6.80139H6.25125ZM6.25125 9.68665C6.12374 9.68665 6.00146 9.7373 5.91129 9.82746C5.82113 9.91762 5.77048 10.0399 5.77048 10.1674V10.1706C5.77048 10.436 5.98522 10.6514 6.25125 10.6514H6.25445C6.38196 10.6514 6.50425 10.6007 6.59441 10.5106C6.68457 10.4204 6.73522 10.2981 6.73522 10.1706V10.1674C6.73522 10.0399 6.68457 9.91762 6.59441 9.82746C6.50425 9.7373 6.38196 9.68665 6.25445 9.68665H6.25125ZM4.32753 10.1674C4.32753 10.0399 4.37818 9.91762 4.46835 9.82746C4.55851 9.7373 4.68079 9.68665 4.8083 9.68665H4.81215C4.93965 9.68665 5.06194 9.7373 5.1521 9.82746C5.24226 9.91762 5.29292 10.0399 5.29292 10.1674V10.1713C5.29292 10.2988 5.24226 10.4211 5.1521 10.5112C5.06194 10.6014 4.93965 10.652 4.81215 10.652H4.8083C4.68079 10.652 4.55851 10.6014 4.46835 10.5112C4.37818 10.4211 4.32753 10.2988 4.32753 10.1713V10.1674ZM3.36599 9.68665C3.23848 9.68665 3.1162 9.7373 3.02604 9.82746C2.93588 9.91762 2.88522 10.0399 2.88522 10.1674V10.1706C2.88522 10.436 3.10061 10.6514 3.36599 10.6514H3.3692C3.49671 10.6514 3.61899 10.6007 3.70915 10.5106C3.79931 10.4204 3.84997 10.2981 3.84997 10.1706V10.1674C3.84997 10.0399 3.79931 9.91762 3.70915 9.82746C3.61899 9.7373 3.49671 9.68665 3.3692 9.68665H3.36599ZM7.21215 8.72703C7.21215 8.59952 7.2628 8.47724 7.35296 8.38708C7.44312 8.29692 7.56541 8.24626 7.69292 8.24626H7.69676C7.82427 8.24626 7.94656 8.29692 8.03672 8.38708C8.12688 8.47724 8.17753 8.59952 8.17753 8.72703V8.73024C8.17753 8.85775 8.12688 8.98003 8.03672 9.07019C7.94656 9.16035 7.82427 9.21101 7.69676 9.21101H7.69292C7.56541 9.21101 7.44312 9.16035 7.35296 9.07019C7.2628 8.98003 7.21215 8.85775 7.21215 8.73024V8.72703ZM7.69356 9.68665C7.56605 9.68665 7.44376 9.7373 7.3536 9.82746C7.26344 9.91762 7.21279 10.0399 7.21279 10.1674V10.1713C7.21279 10.4366 7.42753 10.652 7.69356 10.652H7.69676C7.82427 10.652 7.94656 10.6014 8.03672 10.5112C8.12688 10.4211 8.17753 10.2988 8.17753 10.1713V10.1674C8.17753 10.0399 8.12688 9.91762 8.03672 9.82746C7.94656 9.7373 7.82427 9.68665 7.69676 9.68665H7.69356ZM8.6551 8.72575C8.6551 8.59824 8.70575 8.47596 8.79591 8.3858C8.88607 8.29563 9.00836 8.24498 9.13586 8.24498H9.13907C9.26658 8.24498 9.38886 8.29563 9.47902 8.3858C9.56919 8.47596 9.61984 8.59824 9.61984 8.72575V8.7296C9.61984 8.8571 9.56919 8.97939 9.47902 9.06955C9.38886 9.15971 9.26658 9.21037 9.13907 9.21037H9.13586C9.00836 9.21037 8.88607 9.15971 8.79591 9.06955C8.70575 8.97939 8.6551 8.8571 8.6551 8.7296V8.72575ZM7.21151 7.28216C7.21151 7.15465 7.26216 7.03237 7.35232 6.94221C7.44248 6.85204 7.56477 6.80139 7.69227 6.80139H9.13458C9.26209 6.80139 9.38438 6.85204 9.47454 6.94221C9.5647 7.03237 9.61535 7.15465 9.61535 7.28216C9.61535 7.40967 9.5647 7.53195 9.47454 7.62212C9.38438 7.71228 9.26209 7.76293 9.13458 7.76293H7.69227C7.56477 7.76293 7.44248 7.71228 7.35232 7.62212C7.26216 7.53195 7.21151 7.40967 7.21151 7.28216ZM2.88458 8.72447C2.88458 8.59696 2.93523 8.47468 3.0254 8.38451C3.11556 8.29435 3.23784 8.2437 3.36535 8.2437H6.24997C6.37748 8.2437 6.49976 8.29435 6.58992 8.38451C6.68008 8.47468 6.73074 8.59696 6.73074 8.72447C6.73074 8.85198 6.68008 8.97426 6.58992 9.06442C6.49976 9.15459 6.37748 9.20524 6.24997 9.20524H3.36535C3.23784 9.20524 3.11556 9.15459 3.0254 9.06442C2.93523 8.97426 2.88458 8.85198 2.88458 8.72447Z" fill="#F8F9FB"/>
<path fill-rule="evenodd" clip-rule="evenodd" d="M10.0974 1.03216C10.0974 0.904653 10.0468 0.782367 9.95662 0.692206C9.86646 0.602044 9.74417 0.551392 9.61667 0.551392C9.48916 0.551392 9.36687 0.602044 9.27671 0.692206C9.18655 0.782367 9.1359 0.904653 9.1359 1.03216V1.9937H3.36667V1.0328C3.36667 0.905294 3.31601 0.783008 3.22585 0.692847C3.13569 0.602685 3.01341 0.552033 2.8859 0.552033C2.75839 0.552033 2.6361 0.602685 2.54594 0.692847C2.45578 0.783008 2.40513 0.905294 2.40513 1.0328V1.99242H1.92308C1.41305 1.99242 0.923903 2.19503 0.563256 2.55567C0.202609 2.91632 0 3.40546 0 3.91549V11.1283C0 11.6383 0.202609 12.1275 0.563256 12.4881C0.923903 12.8488 1.41305 13.0514 1.92308 13.0514H10.5769C11.087 13.0514 11.5761 12.8488 11.9367 12.4881C12.2974 12.1275 12.5 11.6383 12.5 11.1283V3.91614C12.5 3.4061 12.2974 2.91696 11.9367 2.55631C11.5761 2.19567 11.087 1.99306 10.5769 1.99306H10.0974V1.03216ZM0.961538 11.1283V6.32062C0.961538 6.06561 1.06284 5.82104 1.24317 5.64071C1.42349 5.46039 1.66806 5.35908 1.92308 5.35908H10.5769C10.8319 5.35908 11.0765 5.46039 11.2568 5.64071C11.4372 5.82104 11.5385 6.06561 11.5385 6.32062V11.1283C11.5385 11.3833 11.4372 11.6279 11.2568 11.8082C11.0765 11.9885 10.8319 12.0899 10.5769 12.0899H1.92308C1.66806 12.0899 1.42349 11.9885 1.24317 11.8082C1.06284 11.6279 0.961538 11.3833 0.961538 11.1283Z" fill="#F8F9FB"/>
</svg>
