<svg width="13" height="14" viewBox="0 0 13 14" fill="none" xmlns="http://www.w3.org/2000/svg">
<path fill-rule="evenodd" clip-rule="evenodd" d="M4.23533 1.58406C4.51664 1.25954 4.86448 0.999362 5.25524 0.821179C5.646 0.642996 6.07053 0.550985 6.5 0.551393C7.40467 0.551393 8.21533 0.951393 8.76467 1.58406C9.19313 1.55347 9.62316 1.61545 10.0255 1.7658C10.4279 1.91614 10.7932 2.15133 11.0967 2.45539C11.4006 2.75877 11.6357 3.12397 11.7861 3.52623C11.9364 3.92848 11.9985 4.35837 11.968 4.78672C12.2924 5.06809 12.5524 5.41596 12.7305 5.80672C12.9086 6.19748 13.0005 6.62197 13 7.05139C13.0004 7.48086 12.9084 7.90539 12.7302 8.29615C12.552 8.68691 12.2918 9.03475 11.9673 9.31606C11.9978 9.74441 11.9357 10.1743 11.7854 10.5766C11.635 10.9788 11.3999 11.344 11.096 11.6474C10.7926 11.9513 10.4274 12.1864 10.0252 12.3368C9.62291 12.4871 9.19302 12.5492 8.76467 12.5187C8.48336 12.8432 8.13552 13.1034 7.74476 13.2816C7.354 13.4598 6.92947 13.5518 6.5 13.5514C6.07053 13.5518 5.646 13.4598 5.25524 13.2816C4.86448 13.1034 4.51664 12.8432 4.23533 12.5187C3.80692 12.5494 3.37692 12.4875 2.97454 12.3373C2.57216 12.1871 2.20682 11.952 1.90333 11.6481C1.59931 11.3446 1.36415 10.9793 1.2138 10.5769C1.06346 10.1745 1.00145 9.74452 1.032 9.31606C0.707609 9.03469 0.447552 8.68682 0.269485 8.29606C0.0914184 7.9053 -0.000489075 7.48081 1.95723e-06 7.05139C1.95723e-06 6.14672 0.400002 5.33606 1.03267 4.78672C1.00217 4.35837 1.0642 3.92847 1.21455 3.52621C1.36489 3.12394 1.60003 2.75874 1.904 2.45539C2.20735 2.15142 2.57255 1.91628 2.97482 1.76594C3.37708 1.61559 3.80698 1.55356 4.23533 1.58406ZM8.90667 5.84206C8.94667 5.78876 8.97561 5.728 8.99179 5.66336C9.00797 5.59871 9.01107 5.53149 9.0009 5.46563C8.99073 5.39977 8.9675 5.33661 8.93257 5.27986C8.89764 5.22311 8.85172 5.17391 8.7975 5.13516C8.74329 5.09641 8.68187 5.06889 8.61687 5.05421C8.55187 5.03954 8.48459 5.038 8.41898 5.0497C8.35338 5.0614 8.29078 5.08609 8.23485 5.12233C8.17893 5.15857 8.13081 5.20562 8.09333 5.26073L5.936 8.28072L4.85333 7.19806C4.75855 7.10974 4.63319 7.06166 4.50365 7.06394C4.37412 7.06623 4.25053 7.1187 4.15892 7.21031C4.06731 7.30192 4.01484 7.42551 4.01255 7.55504C4.01026 7.68458 4.05835 7.80994 4.14667 7.90472L5.64667 9.40472C5.69799 9.45601 5.75987 9.49551 5.82799 9.52049C5.89612 9.54546 5.96886 9.55531 6.04118 9.54935C6.11349 9.54338 6.18364 9.52175 6.24675 9.48596C6.30987 9.45016 6.36443 9.40106 6.40667 9.34206L8.90667 5.84206Z" fill="#F8F9FB"/>
</svg>
