<svg width="13" height="12" viewBox="0 0 13 12" fill="none" xmlns="http://www.w3.org/2000/svg">
<path fill-rule="evenodd" clip-rule="evenodd" d="M7.9139 0.567522C7.96885 0.583308 8.02032 0.610392 8.06537 0.647226C8.11042 0.68406 8.14816 0.729922 8.17644 0.78219C8.20472 0.834458 8.22298 0.892108 8.23018 0.951844C8.23739 1.01158 8.23339 1.07223 8.21841 1.13033L5.61826 11.2133C5.58807 11.3306 5.51504 11.4305 5.41524 11.4908C5.31544 11.5512 5.19704 11.5672 5.08609 11.5353C4.97515 11.5034 4.88073 11.4261 4.82363 11.3206C4.76652 11.215 4.7514 11.0898 4.78159 10.9725L7.38174 0.889565C7.39667 0.831451 7.42228 0.777017 7.4571 0.729376C7.49193 0.681734 7.5353 0.641819 7.58472 0.611911C7.63414 0.582003 7.68865 0.562688 7.74514 0.555072C7.80162 0.547456 7.85897 0.551686 7.9139 0.567522ZM9.22727 2.51933C9.30853 2.43351 9.41867 2.3853 9.53351 2.3853C9.64835 2.3853 9.7585 2.43351 9.83975 2.51933L12.8733 5.72754C12.9544 5.81347 13 5.92996 13 6.05141C13 6.17287 12.9544 6.28935 12.8733 6.37529L9.83975 9.58349C9.80008 9.62852 9.75223 9.66464 9.69908 9.68969C9.64592 9.71474 9.58853 9.72821 9.53035 9.72929C9.47216 9.73038 9.41436 9.71906 9.3604 9.69601C9.30644 9.67296 9.25742 9.63865 9.21627 9.59513C9.17512 9.55161 9.14268 9.49977 9.12088 9.4427C9.09909 9.38563 9.08838 9.3245 9.08941 9.26297C9.09044 9.20143 9.10317 9.14074 9.12686 9.08452C9.15054 9.0283 9.18469 8.9777 9.22727 8.93574L11.9545 6.05141L9.22727 3.16708C9.14612 3.08115 9.10053 2.96466 9.10053 2.84321C9.10053 2.72176 9.14612 2.60527 9.22727 2.51933ZM3.77273 2.51933C3.85388 2.60527 3.89947 2.72176 3.89947 2.84321C3.89947 2.96466 3.85388 3.08115 3.77273 3.16708L1.04546 6.05141L3.77273 8.93574C3.84928 9.02262 3.89095 9.13754 3.88897 9.25627C3.88699 9.37501 3.84151 9.48829 3.76211 9.57226C3.68271 9.65623 3.57559 9.70433 3.46332 9.70643C3.35105 9.70852 3.2424 9.66445 3.16025 9.58349L0.126737 6.37529C0.0455833 6.28935 0 6.17287 0 6.05141C0 5.92996 0.0455833 5.81347 0.126737 5.72754L3.16025 2.51933C3.2415 2.43351 3.35165 2.3853 3.46649 2.3853C3.58133 2.3853 3.69147 2.43351 3.77273 2.51933Z" fill="#F8F9FB"/>
</svg>
