<svg width="30" height="31" viewBox="0 0 30 31" fill="none" xmlns="http://www.w3.org/2000/svg">
<path fill-rule="evenodd" clip-rule="evenodd" d="M25.2846 26.4698C26.7754 25.0691 27.963 23.3774 28.7741 21.4994C29.5851 19.6214 30.0024 17.597 30 15.5514C30 7.26677 23.2846 0.551392 15 0.551392C6.71539 0.551392 1.00142e-05 7.26677 1.00142e-05 15.5514C-0.00235691 17.597 0.414882 19.6214 1.22593 21.4994C2.03698 23.3774 3.22461 25.0691 4.71539 26.4698C7.49529 29.0958 11.1759 30.5565 15 30.5514C18.8241 30.5565 22.5047 29.0958 25.2846 26.4698ZM5.99231 24.4929C7.07243 23.1416 8.4431 22.051 10.0025 21.302C11.5619 20.5531 13.2701 20.165 15 20.1668C16.7299 20.165 18.4381 20.5531 19.9975 21.302C21.5569 22.051 22.9276 23.1416 24.0077 24.4929C22.8293 25.6832 21.4262 26.6277 19.88 27.2716C18.3337 27.9154 16.675 28.2459 15 28.2437C13.325 28.2459 11.6663 27.9154 10.12 27.2716C8.57377 26.6277 7.17073 25.6832 5.99231 24.4929ZM20.7692 10.936C20.7692 12.4661 20.1614 13.9335 19.0795 15.0155C17.9975 16.0974 16.5301 16.7052 15 16.7052C13.4699 16.7052 12.0025 16.0974 10.9205 15.0155C9.8386 13.9335 9.23077 12.4661 9.23077 10.936C9.23077 9.40591 9.8386 7.93848 10.9205 6.85654C12.0025 5.7746 13.4699 5.16677 15 5.16677C16.5301 5.16677 17.9975 5.7746 19.0795 6.85654C20.1614 7.93848 20.7692 9.40591 20.7692 10.936Z" fill="#F8F9FB"/>
</svg>
