<svg width="944" height="546" viewBox="0 0 944 546" fill="none" xmlns="http://www.w3.org/2000/svg">
<g clip-path="url(#clip0_1_5)">
<rect width="944" height="546" fill="#919191"/>
<rect width="944" height="546" fill="#010318"/>
<line x1="147.337" y1="-2.18557e-08" x2="147.337" y2="64.9278" stroke="url(#paint0_linear_1_5)" stroke-opacity="0.24"/>
<line x1="797.139" y1="-2.18557e-08" x2="797.139" y2="64.9278" stroke="url(#paint1_linear_1_5)" stroke-opacity="0.24"/>
<circle cx="146.838" cy="73.3055" r="6.28333" fill="white" fill-opacity="0.12"/>
<circle cx="146.838" cy="73.3055" r="5.78333" stroke="white" stroke-opacity="0.12"/>
<circle cx="797.162" cy="73.3055" r="6.28333" fill="#1F2134"/>
<circle cx="797.162" cy="73.3055" r="5.78333" stroke="white" stroke-opacity="0.12"/>
<circle cx="472" cy="73.3055" r="6.28333" fill="white" fill-opacity="0.12"/>
<circle cx="472" cy="73.3055" r="5.78333" stroke="white" stroke-opacity="0.12"/>
<line x1="95" y1="72.8056" x2="138.46" y2="72.8056" stroke="url(#paint2_linear_1_5)" stroke-opacity="0.24"/>
<line x1="805.54" y1="72.8056" x2="849" y2="72.8056" stroke="url(#paint3_linear_1_5)" stroke-opacity="0.24"/>
<line x1="155.215" y1="72.8056" x2="463.622" y2="72.8055" stroke="white" stroke-opacity="0.16"/>
<line x1="147.337" y1="471.25" x2="147.337" y2="544.556" stroke="url(#paint4_linear_1_5)" stroke-opacity="0.24"/>
<circle cx="146.838" cy="271.754" r="6.28333" fill="white" fill-opacity="0.12"/>
<circle cx="146.838" cy="271.754" r="5.78333" stroke="white" stroke-opacity="0.12"/>
<circle cx="146.838" cy="462.872" r="6.28333" fill="white" fill-opacity="0.12"/>
<circle cx="146.838" cy="462.872" r="5.78333" stroke="white" stroke-opacity="0.12"/>
<line x1="95" y1="462.372" x2="138.46" y2="462.372" stroke="url(#paint5_linear_1_5)" stroke-opacity="0.24"/>
<line x1="95" y1="271.778" x2="138.46" y2="271.778" stroke="url(#paint6_linear_1_5)" stroke-opacity="0.24"/>
<line x1="146.337" y1="453.971" x2="146.337" y2="280.132" stroke="white" stroke-opacity="0.16"/>
<line x1="146.337" y1="263.376" x2="146.338" y2="81.6833" stroke="white" stroke-opacity="0.16"/>
<line y1="-0.5" x2="73.3056" y2="-0.5" transform="matrix(-4.37114e-08 1 1 4.37114e-08 797.162 471.25)" stroke="url(#paint7_linear_1_5)" stroke-opacity="0.24"/>
<circle cx="6.28333" cy="6.28333" r="6.28333" transform="matrix(-1 0 0 1 803.446 265.471)" fill="white" fill-opacity="0.12"/>
<circle cx="6.28333" cy="6.28333" r="6.28333" transform="matrix(-1 0 0 1 803.446 456.589)" fill="white" fill-opacity="0.12"/>
<circle cx="6.28333" cy="6.28333" r="5.78333" transform="matrix(-1 0 0 1 803.446 456.589)" stroke="white" stroke-opacity="0.12"/>
<line y1="-0.5" x2="43.4597" y2="-0.5" transform="matrix(-1 -8.74228e-08 -8.74228e-08 1 849 462.872)" stroke="url(#paint8_linear_1_5)" stroke-opacity="0.24"/>
<line y1="-0.5" x2="43.4597" y2="-0.5" transform="matrix(-1 -8.74228e-08 -8.74228e-08 1 849 272.278)" stroke="url(#paint9_linear_1_5)" stroke-opacity="0.24"/>
<line y1="-0.5" x2="173.839" y2="-0.5" transform="matrix(-4.37114e-08 -1 -1 4.37114e-08 797.162 453.971)" stroke="white" stroke-opacity="0.16"/>
<line y1="-0.5" x2="181.693" y2="-0.5" transform="matrix(-4.37114e-08 -1 -1 4.37114e-08 797.162 263.376)" stroke="white" stroke-opacity="0.16"/>
<line x1="480.378" y1="72.8056" x2="788.785" y2="72.8055" stroke="white" stroke-opacity="0.16"/>
<g style="mix-blend-mode:plus-lighter" filter="url(#filter0_f_1_5)">
<path d="M615.54 160L301.54 -154L-12.4597 -468" stroke="url(#paint10_linear_1_5)" stroke-width="432" stroke-linecap="round"/>
</g>
<g style="mix-blend-mode:plus-lighter" filter="url(#filter1_f_1_5)">
<path d="M947 486L633 800L319 1114" stroke="url(#paint11_linear_1_5)" stroke-width="432" stroke-linecap="round"/>
</g>
</g>
<defs>
<filter id="filter0_f_1_5" x="-316.46" y="-772" width="1236" height="1236" filterUnits="userSpaceOnUse" color-interpolation-filters="sRGB">
<feFlood flood-opacity="0" result="BackgroundImageFix"/>
<feBlend mode="normal" in="SourceGraphic" in2="BackgroundImageFix" result="shape"/>
<feGaussianBlur stdDeviation="44" result="effect1_foregroundBlur_1_5"/>
</filter>
<filter id="filter1_f_1_5" x="15" y="182" width="1236" height="1236" filterUnits="userSpaceOnUse" color-interpolation-filters="sRGB">
<feFlood flood-opacity="0" result="BackgroundImageFix"/>
<feBlend mode="normal" in="SourceGraphic" in2="BackgroundImageFix" result="shape"/>
<feGaussianBlur stdDeviation="44" result="effect1_foregroundBlur_1_5"/>
</filter>
<linearGradient id="paint0_linear_1_5" x1="146.337" y1="2.18557e-08" x2="146.337" y2="64.9278" gradientUnits="userSpaceOnUse">
<stop stop-color="white" stop-opacity="0"/>
<stop offset="1" stop-color="white"/>
</linearGradient>
<linearGradient id="paint1_linear_1_5" x1="796.139" y1="2.18557e-08" x2="796.139" y2="64.9278" gradientUnits="userSpaceOnUse">
<stop stop-color="white" stop-opacity="0"/>
<stop offset="1" stop-color="white"/>
</linearGradient>
<linearGradient id="paint2_linear_1_5" x1="95" y1="73.8056" x2="138.46" y2="73.8056" gradientUnits="userSpaceOnUse">
<stop stop-color="white" stop-opacity="0"/>
<stop offset="1" stop-color="white"/>
</linearGradient>
<linearGradient id="paint3_linear_1_5" x1="805.54" y1="73.8056" x2="849" y2="73.8056" gradientUnits="userSpaceOnUse">
<stop stop-color="white"/>
<stop offset="1" stop-color="white" stop-opacity="0"/>
</linearGradient>
<linearGradient id="paint4_linear_1_5" x1="146.337" y1="471.25" x2="146.337" y2="544.556" gradientUnits="userSpaceOnUse">
<stop stop-color="white"/>
<stop offset="1" stop-color="white" stop-opacity="0"/>
</linearGradient>
<linearGradient id="paint5_linear_1_5" x1="95" y1="463.372" x2="138.46" y2="463.372" gradientUnits="userSpaceOnUse">
<stop stop-color="white" stop-opacity="0"/>
<stop offset="1" stop-color="white"/>
</linearGradient>
<linearGradient id="paint6_linear_1_5" x1="95" y1="272.778" x2="138.46" y2="272.778" gradientUnits="userSpaceOnUse">
<stop stop-color="white" stop-opacity="0"/>
<stop offset="1" stop-color="white"/>
</linearGradient>
<linearGradient id="paint7_linear_1_5" x1="0" y1="0.5" x2="73.3056" y2="0.5" gradientUnits="userSpaceOnUse">
<stop stop-color="white"/>
<stop offset="1" stop-color="white" stop-opacity="0"/>
</linearGradient>
<linearGradient id="paint8_linear_1_5" x1="0" y1="0.5" x2="43.4597" y2="0.5" gradientUnits="userSpaceOnUse">
<stop stop-color="white" stop-opacity="0"/>
<stop offset="1" stop-color="white"/>
</linearGradient>
<linearGradient id="paint9_linear_1_5" x1="0" y1="0.5" x2="43.4597" y2="0.5" gradientUnits="userSpaceOnUse">
<stop stop-color="white" stop-opacity="0"/>
<stop offset="1" stop-color="white"/>
</linearGradient>
<linearGradient id="paint10_linear_1_5" x1="383.058" y1="-451.5" x2="28.7543" y2="-339.312" gradientUnits="userSpaceOnUse">
<stop offset="0.0622667" stop-color="#0F024E" stop-opacity="0.13"/>
<stop offset="0.996954" stop-color="#6D4FFF"/>
<stop offset="1" stop-color="white" stop-opacity="0.14"/>
</linearGradient>
<linearGradient id="paint11_linear_1_5" x1="714.518" y1="1097.5" x2="360.214" y2="985.312" gradientUnits="userSpaceOnUse">
<stop offset="0.0622667" stop-color="#0F024E" stop-opacity="0.13"/>
<stop offset="0.996954" stop-color="#6D4FFF"/>
<stop offset="1" stop-color="white" stop-opacity="0.14"/>
</linearGradient>
<clipPath id="clip0_1_5">
<rect width="944" height="546" fill="white"/>
</clipPath>
</defs>
</svg>
