<svg width="156" height="38" viewBox="0 0 156 38" fill="none" xmlns="http://www.w3.org/2000/svg">
<mask id="mask0_20_184" style="mask-type:luminance" maskUnits="userSpaceOnUse" x="0" y="0" width="39" height="38">
<path d="M0.340088 0.0957184H38.1135V37.8691H0.340088V0.0957184Z" fill="white"/>
</mask>
<g mask="url(#mask0_20_184)">
<path fill-rule="evenodd" clip-rule="evenodd" d="M33.1377 26.1004C33.286 26.1004 33.3747 26.0175 33.3747 25.8974C33.3747 25.7631 33.3004 25.7062 33.1345 25.7062H32.9949V26.1002L33.1377 26.1004ZM32.7779 25.5234H33.1434C33.4545 25.5234 33.5944 25.6464 33.5944 25.8918C33.5944 26.0715 33.4859 26.1713 33.3716 26.2172L33.7029 26.7713H33.4574L33.1719 26.2772H32.9949V26.7713H32.7779V25.5234ZM34.0542 26.146C34.0542 25.6519 33.6858 25.2495 33.169 25.2495C32.6525 25.2495 32.2811 25.6232 32.2811 26.1458C32.2811 26.6399 32.6525 27.0421 33.169 27.0421C33.6573 27.0421 34.0542 26.6685 34.0542 26.146ZM32.1215 26.146C32.1215 25.5379 32.5611 25.098 33.1688 25.098C33.7487 25.098 34.2168 25.5379 34.2168 26.1458C34.2168 26.7539 33.7772 27.1935 33.169 27.1935C32.5611 27.1935 32.1215 26.7541 32.1215 26.146ZM19.8727 26.0753C19.8727 24.8072 21.0023 23.6476 22.3484 22.3019L23.8398 20.8103C24.8293 19.8208 26.9072 17.7418 26.0407 15.7813C25.9838 15.6523 26.0778 15.5882 26.1652 15.695C27.476 17.2977 27.0299 19.7921 24.4528 22.3693L22.3435 24.4743C21.0121 25.8056 20.3681 26.4524 20.0355 28.0667C20.0106 28.1875 19.8727 28.187 19.8727 28.0667V26.0753ZM15.0271 20.9693C13.5111 22.4851 13.1451 24.242 14.3505 25.2861C14.4514 25.3735 14.3989 25.4807 14.2671 25.4204C12.7637 24.7351 11.5786 22.2461 14.1559 19.6687L19.3153 14.514C20.6467 13.1826 21.2909 12.5484 21.6233 10.9343C21.6485 10.8136 21.7863 10.8142 21.7863 10.9343V12.9122C21.7863 14.1803 20.6563 15.3399 19.3106 16.6856L15.0271 20.9693ZM12.2979 23.0116C10.9871 21.4089 11.4329 18.9149 14.01 16.3376L19.321 11.0313C20.6525 9.7 21.2965 9.05316 21.6291 7.43885C21.654 7.31811 21.7919 7.31878 21.7919 7.43885V9.43028C21.7919 10.6984 20.6619 11.858 19.3161 13.2039L14.6233 17.8965C13.6338 18.886 11.5557 20.9651 12.4224 22.9258C12.4793 23.0548 12.3853 23.1186 12.2979 23.0116ZM11.3991 19.5175C10.9255 17.9882 11.235 15.6434 13.4515 13.4267L19.3144 7.56115C20.6458 6.22989 21.2916 5.59284 21.6242 3.97897C21.6491 3.85801 21.787 3.85845 21.787 3.97897V5.95661C21.787 7.22472 20.657 8.38431 19.311 9.73024L14.2546 14.7851C11.9092 17.131 11.5396 18.235 11.5505 19.52C11.5516 19.6563 11.4394 19.6472 11.3991 19.5175ZM23.436 17.7378C24.952 16.2215 25.318 14.4651 24.1126 13.4207C24.0117 13.3333 24.0641 13.2264 24.196 13.2864C25.6991 13.9715 26.8843 16.4606 24.3072 19.0381L22.3491 20.9915C21.0176 22.323 20.3735 22.9572 20.0408 24.5715C20.0159 24.692 19.878 24.6916 19.878 24.5715V22.5934C19.878 21.3253 21.0081 20.1659 22.3538 18.82L23.436 17.7378ZM27.064 19.1893C27.5371 20.7187 27.2281 23.0635 25.0116 25.2801L22.3498 27.9444L22.1332 28.1614H20.301C20.7497 27.3908 21.5088 26.6198 22.3533 25.7756L24.2085 23.9218C26.5539 21.5761 26.9234 20.4719 26.9123 19.1869C26.9114 19.0508 27.0235 19.0592 27.064 19.1893ZM20.0401 31.5268C20.0152 31.6476 19.8774 31.6471 19.8774 31.5268V29.5516C19.8774 29.5072 19.9136 29.4707 19.9583 29.4707L20.9367 29.4702C20.5018 30.0455 20.2234 30.6378 20.0401 31.5268ZM24.3848 31.4721C21.8383 31.043 20.4502 32.2548 20.0346 33.3897C19.9979 33.49 19.8787 33.4749 19.8787 33.3791L19.8774 33.026C19.8774 31.7579 21.0074 30.5983 22.3533 29.2526L24.5767 27.0274L30.5003 28.0463C30.5003 28.0463 32.1924 29.7384 33.6395 31.1866C36.4297 27.8948 38.1133 23.6356 38.1133 18.9823C38.1133 8.55153 29.6575 0.0957184 19.2268 0.0957184C8.79597 0.0957184 0.339722 8.55153 0.339722 18.9823C0.339722 23.6356 2.02386 27.8948 4.814 31.1866C6.26088 29.7382 7.95302 28.0463 7.95302 28.0463L14.6771 26.8907C17.7912 26.3486 18.5684 27.0492 18.5735 28.0803C18.5734 28.1017 18.5649 28.1222 18.5498 28.1374C18.5347 28.1525 18.5142 28.1611 18.4928 28.1612L16.5509 28.1606C16.5064 28.1606 16.4702 28.1968 16.4702 28.2415V29.3893C16.4702 29.434 16.5064 29.4702 16.5509 29.4702H18.4943C18.5388 29.4702 18.575 29.5063 18.575 29.5512L18.5748 33.3791C18.5748 33.4749 18.4556 33.4902 18.4189 33.3897C18.0031 32.2546 16.6152 31.0428 14.0687 31.4721C14.0687 31.4721 9.64071 32.2375 6.35605 32.8029C9.72921 35.9453 14.2528 37.8691 19.2268 37.8691C24.2007 37.8691 28.7243 35.9453 32.0975 32.8029C29.5265 32.36 26.9556 31.9164 24.3848 31.4721Z" fill="#EDF7FF"/>
</g>
<path d="M51.0534 18.0124H49.9734V10.3924H47.2974L47.6574 9.44437H53.7174V10.3924H51.0534V18.0124ZM59.4094 11.5804V18.0124H58.5454L58.3894 17.1604H58.3414C57.9214 17.8324 57.1294 18.1324 56.3014 18.1324C54.7534 18.1324 53.9614 17.4244 53.9614 15.7924V11.5804H55.0294V15.7204C55.0294 16.7524 55.4854 17.2564 56.4574 17.2564C57.8854 17.2564 58.3534 16.4284 58.3534 14.9284V11.5804H59.4094ZM63.7852 18.1324C62.0692 18.1324 60.8452 17.1124 60.8452 14.8324C60.8452 12.4564 62.1292 11.4604 63.8572 11.4604C64.5052 11.4604 65.1772 11.6164 65.5612 11.8084L65.2252 12.6844C64.8412 12.5404 64.2772 12.3844 63.8332 12.3844C62.5492 12.3844 61.9372 13.2124 61.9372 14.8204C61.9372 16.3684 62.5612 17.2204 63.7732 17.2204C64.3132 17.2204 64.7812 17.1004 65.2012 16.9084L65.5252 17.7484C65.1652 17.9764 64.5172 18.1324 63.7852 18.1324ZM70.9128 16.2364C70.9128 17.4844 69.9168 18.1324 68.3448 18.1324C67.4448 18.1324 66.8208 17.9884 66.3288 17.7244L66.6408 16.9084C67.0608 17.0884 67.7568 17.2804 68.3688 17.2804C69.4368 17.2804 69.8928 16.9084 69.8928 16.3324C69.8928 15.8524 69.5688 15.5644 68.3088 15.0844C67.0608 14.6044 66.3168 14.2204 66.3168 13.1644C66.3168 12.0724 67.2888 11.4604 68.7288 11.4604C69.5088 11.4604 70.1808 11.6284 70.7808 11.8924L70.4568 12.7444C69.9048 12.5044 69.2808 12.3244 68.6568 12.3244C67.7928 12.3244 67.3248 12.6244 67.3248 13.1044C67.3248 13.6444 67.7448 13.8604 68.9808 14.3284C70.2048 14.7844 70.9128 15.2044 70.9128 16.2364ZM77.7894 14.7844C77.7894 16.9204 76.6254 18.1324 74.7894 18.1324C73.0854 18.1324 71.8374 16.9204 71.8374 14.7844C71.8374 12.6604 72.9774 11.4604 74.8254 11.4604C76.5654 11.4604 77.7894 12.6604 77.7894 14.7844ZM72.9294 14.7844C72.9294 16.3084 73.5054 17.2564 74.8134 17.2564C76.1094 17.2564 76.6974 16.3084 76.6974 14.7844C76.6974 13.2604 76.1094 12.3484 74.8014 12.3484C73.4934 12.3484 72.9294 13.2604 72.9294 14.7844ZM82.313 11.4604C83.849 11.4604 84.641 12.1684 84.641 13.8244V18.0124H83.597V13.8964C83.597 12.8644 83.141 12.3484 82.157 12.3484C80.729 12.3484 80.273 13.1764 80.273 14.6764V18.0124H79.217V11.5804H80.069L80.225 12.4564H80.285C80.705 11.7844 81.497 11.4604 82.313 11.4604ZM96.2076 18.0124H94.9476L90.3636 10.8964H90.3156C90.3516 11.4604 90.4116 12.3484 90.4116 13.2244V18.0124H89.4156V9.44437H90.6636L95.2356 16.5364H95.2836C95.2596 16.1524 95.1996 15.0604 95.1996 14.2804V9.44437H96.2076V18.0124ZM103.746 14.7844C103.746 16.9204 102.582 18.1324 100.746 18.1324C99.0425 18.1324 97.7945 16.9204 97.7945 14.7844C97.7945 12.6604 98.9345 11.4604 100.782 11.4604C102.522 11.4604 103.746 12.6604 103.746 14.7844ZM98.8865 14.7844C98.8865 16.3084 99.4625 17.2564 100.77 17.2564C102.066 17.2564 102.654 16.3084 102.654 14.7844C102.654 13.2604 102.066 12.3484 100.758 12.3484C99.4505 12.3484 98.8865 13.2604 98.8865 14.7844ZM108.174 11.4604C108.414 11.4604 108.714 11.4844 108.93 11.5324L108.798 12.5044C108.594 12.4564 108.318 12.4204 108.102 12.4204C107.106 12.4204 106.23 13.2844 106.23 14.5804V18.0124H105.174V11.5804H106.038L106.158 12.7564H106.206C106.614 12.0484 107.274 11.4604 108.174 11.4604ZM111.721 17.2684C111.961 17.2684 112.285 17.1844 112.429 17.1124L112.717 17.8684C112.489 18.0124 112.033 18.1324 111.541 18.1324C110.533 18.1324 109.657 17.7004 109.657 16.1404V10.5004L110.713 10.1044V11.5804H112.573V12.3964H110.713V16.1164C110.713 16.8964 111.133 17.2684 111.721 17.2684ZM114.726 8.89237V11.5684C114.726 11.8804 114.702 12.2164 114.666 12.4684H114.738C115.146 11.8084 115.914 11.4724 116.742 11.4724C118.302 11.4724 119.094 12.1804 119.094 13.8244V18.0124H118.05V13.8964C118.05 12.8644 117.594 12.3484 116.61 12.3484C115.17 12.3484 114.726 13.1884 114.726 14.6884V18.0124H113.67V9.28837L114.726 8.89237ZM126.098 18.0004L124.994 14.3764C124.79 13.7164 124.622 13.0324 124.55 12.6724H124.502C124.442 13.0324 124.286 13.7164 124.07 14.3884L122.918 18.0004H121.718L119.954 11.5684H121.046L121.934 15.0004C122.114 15.6964 122.294 16.4644 122.354 16.9204H122.402C122.486 16.5244 122.666 15.7204 122.834 15.1924L123.974 11.5684H125.126L126.23 15.1924C126.398 15.7444 126.602 16.4524 126.662 16.9084H126.71C126.758 16.5124 126.95 15.7324 127.142 15.0004L128.042 11.5684H129.122L127.334 18.0004H126.098ZM132.513 11.4604C134.157 11.4604 135.165 12.6124 135.165 14.3644V15.0004H130.761C130.797 16.4524 131.529 17.2324 132.813 17.2324C133.437 17.2324 134.073 17.1124 134.577 16.9204L134.877 17.7124C134.217 18.0004 133.641 18.1324 132.765 18.1324C130.929 18.1324 129.669 16.9924 129.669 14.8444C129.669 12.7324 130.809 11.4604 132.513 11.4604ZM132.501 12.3244C131.493 12.3244 130.893 13.0084 130.785 14.1604H134.061C134.049 13.0684 133.569 12.3244 132.501 12.3244ZM140.745 16.2364C140.745 17.4844 139.749 18.1324 138.177 18.1324C137.277 18.1324 136.653 17.9884 136.161 17.7244L136.473 16.9084C136.893 17.0884 137.589 17.2804 138.201 17.2804C139.269 17.2804 139.725 16.9084 139.725 16.3324C139.725 15.8524 139.401 15.5644 138.141 15.0844C136.893 14.6044 136.149 14.2204 136.149 13.1644C136.149 12.0724 137.121 11.4604 138.561 11.4604C139.341 11.4604 140.013 11.6284 140.613 11.8924L140.289 12.7444C139.737 12.5044 139.113 12.3244 138.489 12.3244C137.625 12.3244 137.157 12.6244 137.157 13.1044C137.157 13.6444 137.577 13.8604 138.813 14.3284C140.037 14.7844 140.745 15.2044 140.745 16.2364ZM143.865 17.2684C144.105 17.2684 144.429 17.1844 144.573 17.1124L144.861 17.8684C144.633 18.0124 144.177 18.1324 143.685 18.1324C142.677 18.1324 141.801 17.7004 141.801 16.1404V10.5004L142.857 10.1044V11.5804H144.717V12.3964H142.857V16.1164C142.857 16.8964 143.277 17.2684 143.865 17.2684ZM53.3214 27.7204C53.3214 29.2444 52.1334 30.1324 50.2614 30.1324C49.3014 30.1324 48.4494 29.9884 47.9094 29.7244L48.2454 28.8364C48.6174 29.0044 49.3974 29.1964 50.3094 29.1964C51.5814 29.1964 52.2414 28.6684 52.2414 27.8164C52.2414 26.9764 51.7734 26.6164 50.2254 26.0524C48.7614 25.5244 48.0174 24.8404 48.0174 23.5084C48.0174 22.1524 49.1334 21.3244 50.7534 21.3244C51.6894 21.3244 52.4694 21.5164 53.1174 21.8044L52.7694 22.7284C52.1694 22.4764 51.4734 22.2724 50.7294 22.2724C49.6614 22.2724 49.1094 22.7764 49.1094 23.5204C49.1094 24.3844 49.5894 24.7324 50.9814 25.2484C52.4934 25.8124 53.3214 26.3764 53.3214 27.7204ZM57.8434 23.4604C59.4274 23.4604 60.4834 24.5644 60.4834 26.7844C60.4834 28.9804 59.4274 30.1324 57.8314 30.1324C56.8354 30.1324 56.2114 29.7004 55.8394 29.1964H55.7674C55.7914 29.4724 55.8394 29.9524 55.8394 30.2524V32.8924H54.7834V23.5804H55.6474L55.7914 24.4564H55.8394C56.2234 23.9044 56.7994 23.4604 57.8434 23.4604ZM57.6514 24.3484C56.3434 24.3484 55.8634 25.0804 55.8394 26.5804V26.7844C55.8394 28.3684 56.2714 29.2564 57.6754 29.2564C58.8394 29.2564 59.3914 28.2124 59.3914 26.7724C59.3914 25.3084 58.8394 24.3484 57.6514 24.3484ZM64.3561 23.4724C65.9161 23.4724 66.6601 24.1324 66.6601 25.6324V30.0124H65.8921L65.6881 29.1004H65.6401C65.0761 29.8084 64.5601 30.1324 63.4801 30.1324C62.3161 30.1324 61.4521 29.5324 61.4521 28.2244C61.4521 26.9404 62.4361 26.2324 64.5361 26.1724L65.6281 26.1364V25.7524C65.6281 24.6844 65.1361 24.3244 64.2961 24.3244C63.6241 24.3244 63.0121 24.5644 62.4841 24.8164L62.1601 24.0244C62.7241 23.7244 63.5161 23.4724 64.3561 23.4724ZM65.6161 26.8684L64.6681 26.9044C63.0601 26.9644 62.5441 27.4204 62.5441 28.2364C62.5441 28.9564 63.0241 29.2804 63.7201 29.2804C64.8001 29.2804 65.6161 28.6924 65.6161 27.4444V26.8684ZM71.5083 23.4604C73.0443 23.4604 73.8363 24.1684 73.8363 25.8244V30.0124H72.7923V25.8964C72.7923 24.8644 72.3363 24.3484 71.3523 24.3484C69.9243 24.3484 69.4683 25.1764 69.4683 26.6764V30.0124H68.4123V23.5804H69.2643L69.4203 24.4564H69.4803C69.9003 23.7844 70.6923 23.4604 71.5083 23.4604ZM76.1241 21.1684C76.4481 21.1684 76.7361 21.3724 76.7361 21.8404C76.7361 22.2964 76.4481 22.5124 76.1241 22.5124C75.7761 22.5124 75.5001 22.2964 75.5001 21.8404C75.5001 21.3724 75.7761 21.1684 76.1241 21.1684ZM76.6401 23.5804V30.0124H75.5841V23.5804H76.6401ZM82.6315 28.2364C82.6315 29.4844 81.6355 30.1324 80.0635 30.1324C79.1635 30.1324 78.5395 29.9884 78.0475 29.7244L78.3595 28.9084C78.7795 29.0884 79.4755 29.2804 80.0875 29.2804C81.1555 29.2804 81.6115 28.9084 81.6115 28.3324C81.6115 27.8524 81.2875 27.5644 80.0275 27.0844C78.7795 26.6044 78.0355 26.2204 78.0355 25.1644C78.0355 24.0724 79.0075 23.4604 80.4475 23.4604C81.2275 23.4604 81.8995 23.6284 82.4995 23.8924L82.1755 24.7444C81.6235 24.5044 80.9995 24.3244 80.3755 24.3244C79.5115 24.3244 79.0435 24.6244 79.0435 25.1044C79.0435 25.6444 79.4635 25.8604 80.6995 26.3284C81.9235 26.7844 82.6315 27.2044 82.6315 28.2364ZM84.9722 20.8924V23.5684C84.9722 23.8804 84.9482 24.2164 84.9122 24.4684H84.9842C85.3922 23.8084 86.1602 23.4724 86.9882 23.4724C88.5482 23.4724 89.3402 24.1804 89.3402 25.8244V30.0124H88.2962V25.8964C88.2962 24.8644 87.8402 24.3484 86.8562 24.3484C85.4162 24.3484 84.9722 25.1884 84.9722 26.6884V30.0124H83.9162V21.2884L84.9722 20.8924ZM97.7869 22.2724C95.9509 22.2724 94.8229 23.5804 94.8229 25.7284C94.8229 27.8524 95.8069 29.1844 97.7749 29.1844C98.5189 29.1844 99.4309 29.0164 99.9829 28.7524L100.295 29.5804C99.3349 30.0244 98.6989 30.1324 97.6189 30.1324C94.9909 30.1324 93.6829 28.4164 93.6829 25.7164C93.6829 23.1244 95.1469 21.3244 97.7989 21.3244C98.6749 21.3244 99.4429 21.4684 100.091 21.7924L99.7309 22.7404C99.2029 22.5004 98.5549 22.2724 97.7869 22.2724ZM102.375 20.8924V23.5684C102.375 23.8804 102.351 24.2164 102.315 24.4684H102.387C102.795 23.8084 103.563 23.4724 104.391 23.4724C105.951 23.4724 106.743 24.1804 106.743 25.8244V30.0124H105.699V25.8964C105.699 24.8644 105.243 24.3484 104.259 24.3484C102.819 24.3484 102.375 25.1884 102.375 26.6884V30.0124H101.319V21.2884L102.375 20.8924ZM113.866 23.5804V30.0124H113.002L112.846 29.1604H112.798C112.378 29.8324 111.586 30.1324 110.758 30.1324C109.21 30.1324 108.418 29.4244 108.418 27.7924V23.5804H109.486V27.7204C109.486 28.7524 109.942 29.2564 110.914 29.2564C112.342 29.2564 112.81 28.4284 112.81 26.9284V23.5804H113.866ZM118.662 23.4604C118.902 23.4604 119.202 23.4844 119.418 23.5324L119.286 24.5044C119.082 24.4564 118.806 24.4204 118.59 24.4204C117.594 24.4204 116.718 25.2844 116.718 26.5804V30.0124H115.662V23.5804H116.526L116.646 24.7564H116.694C117.102 24.0484 117.762 23.4604 118.662 23.4604ZM122.719 30.1324C121.003 30.1324 119.779 29.1124 119.779 26.8324C119.779 24.4564 121.063 23.4604 122.791 23.4604C123.439 23.4604 124.111 23.6164 124.495 23.8084L124.159 24.6844C123.775 24.5404 123.211 24.3844 122.767 24.3844C121.483 24.3844 120.871 25.2124 120.871 26.8204C120.871 28.3684 121.495 29.2204 122.707 29.2204C123.247 29.2204 123.715 29.1004 124.135 28.9084L124.459 29.7484C124.099 29.9764 123.451 30.1324 122.719 30.1324ZM126.714 20.8924V23.5684C126.714 23.8804 126.69 24.2164 126.654 24.4684H126.726C127.134 23.8084 127.902 23.4724 128.73 23.4724C130.29 23.4724 131.082 24.1804 131.082 25.8244V30.0124H130.038V25.8964C130.038 24.8644 129.582 24.3484 128.598 24.3484C127.158 24.3484 126.714 25.1884 126.714 26.6884V30.0124H125.658V21.2884L126.714 20.8924Z" fill="white"/>
</svg>
